<?xml version="1.0" encoding="utf-8"?>
<!-- Generator: Adobe Illustrator 26.0.3, SVG Export Plug-In . SVG Version: 6.00 Build 0)  -->
<svg version="1.1" xmlns="http://www.w3.org/2000/svg" xmlns:xlink="http://www.w3.org/1999/xlink" x="0px" y="0px"
	 viewBox="0 0 432 432" style="enable-background:new 0 0 432 432;" xml:space="preserve">
<style type="text/css">
	.st0{fill:#00BC9E;}
	.st1{fill:#009A81;}
	.st2{fill:#FFFFFF;}
</style>
<g id="Layer_1">
</g>
<g id="Layer_2">
	<circle class="st0" cx="216" cy="215.6" r="211.8"/>
	<path class="st1" d="M427.8,216.6L235.4,72.9l-1.3,2.3c0.1,0.7,0.1,1.4,0.1,2v14.2l1.2,0.3c21.3,5.4,36.4,13,49.1,24.7
		c19.6,18.2,29.2,44.9,29.4,81.7c0.2,34.7,10.9,61,34.6,85.3c4.5,4.6,5.6,12.9,2.8,19.7c-1.6,3.8-5.9,10.3-16.2,10.3H96.8
		c-2.8,0-5.1-0.5-7.1-1.2l-1.4,1.3l130,113.9C333.9,426.1,427.3,332.3,427.8,216.6z"/>
	<g>
		<path class="st2" d="M335.3,315c19.9,0,23.9-23.2,14.6-32.7c-22.6-23-34-48.5-34.2-84.2c-0.2-39.7-11.3-65.6-30-82.9
			c-12.7-11.8-27.9-19.6-49.8-25.1V77.3c0-10.9-8.9-19.8-19.8-19.8s-19.8,8.8-19.8,19.8v12.9c-21.9,5.5-37.1,13.3-49.8,25.1
			c-18.7,17.3-29.7,43.1-30,82.9c-0.2,35.7-11.6,61.1-34.2,84.2C73,291.8,76.9,315,96.8,315H335.3z"/>
		<path class="st2" d="M216,375.8c21.8,0,39.5-17.7,39.5-39.5h-79C176.5,358.1,194.2,375.8,216,375.8z"/>
	</g>
</g>
</svg>
